<mxfile host="Electron" agent="Mozilla/5.0 (Windows NT 10.0; Win64; x64) AppleWebKit/537.36 (KHTML, like Gecko) draw.io/26.0.4 Chrome/128.0.6613.186 Electron/32.2.5 Safari/537.36" version="26.0.4">
  <diagram name="第 1 页" id="jSY1Id77hmMXauqR6qa6">
    <mxGraphModel dx="1050" dy="621" grid="0" gridSize="10" guides="1" tooltips="1" connect="1" arrows="1" fold="1" page="0" pageScale="1" pageWidth="827" pageHeight="1169" math="0" shadow="0">
      <root>
        <mxCell id="0" />
        <mxCell id="1" parent="0" />
        <mxCell id="Qois3ID9x9ZdXMwzkJd7-1" style="edgeStyle=orthogonalEdgeStyle;rounded=0;orthogonalLoop=1;jettySize=auto;html=1;endArrow=none;endFill=0;opacity=30;" edge="1" parent="1">
          <mxGeometry relative="1" as="geometry">
            <mxPoint x="217" y="620" as="sourcePoint" />
            <mxPoint x="216.5" y="660" as="targetPoint" />
          </mxGeometry>
        </mxCell>
        <mxCell id="Qois3ID9x9ZdXMwzkJd7-2" value="&lt;font style=&quot;font-size: 16px;&quot;&gt;&lt;b&gt;线程1&lt;/b&gt;&lt;/font&gt;" style="rounded=0;whiteSpace=wrap;html=1;fillColor=#dae8fc;strokeColor=#6c8ebf;" vertex="1" parent="1">
          <mxGeometry x="160" y="140" width="120" height="60" as="geometry" />
        </mxCell>
        <mxCell id="Qois3ID9x9ZdXMwzkJd7-3" style="edgeStyle=orthogonalEdgeStyle;rounded=0;orthogonalLoop=1;jettySize=auto;html=1;endArrow=none;endFill=0;opacity=30;" edge="1" parent="1">
          <mxGeometry relative="1" as="geometry">
            <mxPoint x="454" y="242" as="sourcePoint" />
            <mxPoint x="454" y="660" as="targetPoint" />
          </mxGeometry>
        </mxCell>
        <mxCell id="Qois3ID9x9ZdXMwzkJd7-4" value="&lt;font style=&quot;font-size: 16px;&quot;&gt;&lt;b&gt;线程2&lt;/b&gt;&lt;/font&gt;" style="rounded=0;whiteSpace=wrap;html=1;fillColor=#dae8fc;strokeColor=#6c8ebf;" vertex="1" parent="1">
          <mxGeometry x="390" y="140" width="120" height="60" as="geometry" />
        </mxCell>
        <mxCell id="Qois3ID9x9ZdXMwzkJd7-5" style="edgeStyle=orthogonalEdgeStyle;rounded=0;orthogonalLoop=1;jettySize=auto;html=1;endArrow=none;endFill=0;opacity=30;" edge="1" parent="1">
          <mxGeometry relative="1" as="geometry">
            <mxPoint x="710" y="390" as="sourcePoint" />
            <mxPoint x="710" y="660" as="targetPoint" />
          </mxGeometry>
        </mxCell>
        <mxCell id="Qois3ID9x9ZdXMwzkJd7-6" value="&lt;font style=&quot;font-size: 16px;&quot;&gt;&lt;b&gt;static i = 0&lt;/b&gt;&lt;/font&gt;" style="rounded=0;whiteSpace=wrap;html=1;fillColor=#dae8fc;strokeColor=#6c8ebf;" vertex="1" parent="1">
          <mxGeometry x="650" y="140" width="120" height="60" as="geometry" />
        </mxCell>
        <mxCell id="Qois3ID9x9ZdXMwzkJd7-7" value="&lt;font style=&quot;font-size: 16px;&quot;&gt;&lt;b&gt;线程1&lt;/b&gt;&lt;/font&gt;" style="rounded=0;whiteSpace=wrap;html=1;fillColor=#dae8fc;strokeColor=#6c8ebf;" vertex="1" parent="1">
          <mxGeometry x="160" y="660" width="120" height="60" as="geometry" />
        </mxCell>
        <mxCell id="Qois3ID9x9ZdXMwzkJd7-8" value="&lt;font style=&quot;font-size: 16px;&quot;&gt;&lt;b&gt;线程2&lt;/b&gt;&lt;/font&gt;" style="rounded=0;whiteSpace=wrap;html=1;fillColor=#dae8fc;strokeColor=#6c8ebf;" vertex="1" parent="1">
          <mxGeometry x="390" y="660" width="120" height="60" as="geometry" />
        </mxCell>
        <mxCell id="Qois3ID9x9ZdXMwzkJd7-9" value="&lt;font style=&quot;font-size: 16px;&quot;&gt;&lt;b&gt;static i = -1&lt;/b&gt;&lt;/font&gt;" style="rounded=0;whiteSpace=wrap;html=1;fillColor=#dae8fc;strokeColor=#6c8ebf;" vertex="1" parent="1">
          <mxGeometry x="650" y="660" width="120" height="60" as="geometry" />
        </mxCell>
        <mxCell id="Qois3ID9x9ZdXMwzkJd7-10" value="&lt;font style=&quot;font-size: 16px;&quot;&gt;&lt;b&gt;getstatic i = 0&lt;/b&gt;&lt;/font&gt;" style="text;html=1;align=center;verticalAlign=middle;resizable=0;points=[];autosize=1;strokeColor=none;fillColor=none;" vertex="1" parent="1">
          <mxGeometry x="520" y="210" width="120" height="30" as="geometry" />
        </mxCell>
        <mxCell id="Qois3ID9x9ZdXMwzkJd7-11" value="&lt;font style=&quot;font-size: 15px;&quot;&gt;&lt;b style=&quot;&quot;&gt;iconst_1：准备常量1&lt;/b&gt;&lt;/font&gt;" style="text;html=1;align=center;verticalAlign=middle;resizable=0;points=[];autosize=1;strokeColor=none;fillColor=none;" vertex="1" parent="1">
          <mxGeometry x="58" y="425" width="160" height="30" as="geometry" />
        </mxCell>
        <mxCell id="Qois3ID9x9ZdXMwzkJd7-12" value="&lt;b&gt;&lt;font style=&quot;font-size: 16px;&quot;&gt;上下文切换&lt;/font&gt;&lt;/b&gt;" style="text;html=1;align=center;verticalAlign=middle;resizable=0;points=[];autosize=1;strokeColor=none;fillColor=none;" vertex="1" parent="1">
          <mxGeometry x="290" y="320" width="100" height="30" as="geometry" />
        </mxCell>
        <mxCell id="Qois3ID9x9ZdXMwzkJd7-13" value="&lt;b style=&quot;forced-color-adjust: none; color: rgb(0, 0, 0); font-family: Helvetica; font-size: 16px; font-style: normal; font-variant-ligatures: normal; font-variant-caps: normal; letter-spacing: normal; orphans: 2; text-align: center; text-indent: 0px; text-transform: none; widows: 2; word-spacing: 0px; -webkit-text-stroke-width: 0px; white-space: nowrap; background-color: rgb(255, 255, 255); text-decoration-thickness: initial; text-decoration-style: initial; text-decoration-color: initial;&quot;&gt;getstatic i = 0&lt;/b&gt;" style="text;whiteSpace=wrap;html=1;" vertex="1" parent="1">
          <mxGeometry x="520" y="369" width="140" height="40" as="geometry" />
        </mxCell>
        <mxCell id="Qois3ID9x9ZdXMwzkJd7-14" value="&lt;font style=&quot;font-size: 16px;&quot;&gt;&lt;b&gt;iconst_1：准备常量1&lt;/b&gt;&lt;/font&gt;" style="text;html=1;align=center;verticalAlign=middle;resizable=0;points=[];autosize=1;strokeColor=none;fillColor=none;" vertex="1" parent="1">
          <mxGeometry x="285" y="256" width="170" height="30" as="geometry" />
        </mxCell>
        <mxCell id="Qois3ID9x9ZdXMwzkJd7-15" value="&lt;font style=&quot;font-size: 16px;&quot;&gt;&lt;b&gt;isub i = -1&lt;/b&gt;&lt;/font&gt;" style="text;html=1;align=center;verticalAlign=middle;resizable=0;points=[];autosize=1;strokeColor=none;fillColor=none;" vertex="1" parent="1">
          <mxGeometry x="360" y="286" width="100" height="30" as="geometry" />
        </mxCell>
        <mxCell id="Qois3ID9x9ZdXMwzkJd7-16" value="&lt;b style=&quot;forced-color-adjust: none; color: rgb(0, 0, 0); font-family: Helvetica; font-size: 16px; font-style: normal; font-variant-ligatures: normal; font-variant-caps: normal; letter-spacing: normal; orphans: 2; text-align: center; text-indent: 0px; text-transform: none; widows: 2; word-spacing: 0px; -webkit-text-stroke-width: 0px; white-space: nowrap; background-color: rgb(255, 255, 255); text-decoration-thickness: initial; text-decoration-style: initial; text-decoration-color: initial;&quot;&gt;putstatic i = -1&lt;/b&gt;" style="text;whiteSpace=wrap;html=1;" vertex="1" parent="1">
          <mxGeometry x="520" y="572" width="140" height="40" as="geometry" />
        </mxCell>
        <mxCell id="Qois3ID9x9ZdXMwzkJd7-17" value="&lt;b&gt;&lt;font style=&quot;font-size: 16px;&quot;&gt;上下文切换&lt;/font&gt;&lt;/b&gt;" style="text;html=1;align=center;verticalAlign=middle;resizable=0;points=[];autosize=1;strokeColor=none;fillColor=none;" vertex="1" parent="1">
          <mxGeometry x="290" y="544" width="100" height="30" as="geometry" />
        </mxCell>
        <mxCell id="Qois3ID9x9ZdXMwzkJd7-18" value="&lt;b style=&quot;forced-color-adjust: none; color: rgb(0, 0, 0); font-family: Helvetica; font-size: 16px; font-style: normal; font-variant-ligatures: normal; font-variant-caps: normal; letter-spacing: normal; orphans: 2; text-align: center; text-indent: 0px; text-transform: none; widows: 2; word-spacing: 0px; -webkit-text-stroke-width: 0px; white-space: nowrap; background-color: rgb(255, 255, 255); text-decoration-thickness: initial; text-decoration-style: initial; text-decoration-color: initial;&quot;&gt;putstatic i = 1&lt;/b&gt;" style="text;whiteSpace=wrap;html=1;" vertex="1" parent="1">
          <mxGeometry x="285" y="487" width="140" height="40" as="geometry" />
        </mxCell>
        <mxCell id="Qois3ID9x9ZdXMwzkJd7-19" value="" style="edgeStyle=orthogonalEdgeStyle;rounded=0;orthogonalLoop=1;jettySize=auto;html=1;endArrow=none;endFill=0;opacity=30;" edge="1" parent="1">
          <mxGeometry relative="1" as="geometry">
            <mxPoint x="217" y="360" as="sourcePoint" />
            <mxPoint x="217" y="620" as="targetPoint" />
          </mxGeometry>
        </mxCell>
        <mxCell id="Qois3ID9x9ZdXMwzkJd7-20" value="" style="edgeStyle=orthogonalEdgeStyle;rounded=0;orthogonalLoop=1;jettySize=auto;html=1;endArrow=none;endFill=0;opacity=30;" edge="1" parent="1">
          <mxGeometry relative="1" as="geometry">
            <mxPoint x="216.5" y="201" as="sourcePoint" />
            <mxPoint x="217" y="360" as="targetPoint" />
          </mxGeometry>
        </mxCell>
        <mxCell id="Qois3ID9x9ZdXMwzkJd7-21" value="" style="edgeStyle=orthogonalEdgeStyle;rounded=0;orthogonalLoop=1;jettySize=auto;html=1;endArrow=none;endFill=0;opacity=30;" edge="1" parent="1">
          <mxGeometry relative="1" as="geometry">
            <mxPoint x="710" y="242" as="sourcePoint" />
            <mxPoint x="710" y="390" as="targetPoint" />
          </mxGeometry>
        </mxCell>
        <mxCell id="Qois3ID9x9ZdXMwzkJd7-23" value="&lt;b style=&quot;font-size: 16px;&quot;&gt;iadd i = 1&lt;/b&gt;" style="text;html=1;align=center;verticalAlign=middle;resizable=0;points=[];autosize=1;strokeColor=none;fillColor=none;" vertex="1" parent="1">
          <mxGeometry x="128" y="457" width="90" height="30" as="geometry" />
        </mxCell>
        <mxCell id="Qois3ID9x9ZdXMwzkJd7-25" style="edgeStyle=orthogonalEdgeStyle;rounded=0;orthogonalLoop=1;jettySize=auto;html=1;entryX=0.67;entryY=0.72;entryDx=0;entryDy=0;entryPerimeter=0;dashed=1;" edge="1" parent="1">
          <mxGeometry relative="1" as="geometry">
            <mxPoint x="452.5" y="360" as="sourcePoint" />
            <mxPoint x="217" y="360" as="targetPoint" />
          </mxGeometry>
        </mxCell>
        <mxCell id="Qois3ID9x9ZdXMwzkJd7-26" value="" style="html=1;rounded=0;endArrow=none;endFill=0;startArrow=classic;startFill=1;" edge="1" parent="1">
          <mxGeometry width="100" relative="1" as="geometry">
            <mxPoint x="710" y="530" as="sourcePoint" />
            <mxPoint x="710" y="530" as="targetPoint" />
          </mxGeometry>
        </mxCell>
        <mxCell id="Qois3ID9x9ZdXMwzkJd7-27" style="edgeStyle=orthogonalEdgeStyle;rounded=0;orthogonalLoop=1;jettySize=auto;html=1;entryX=0.82;entryY=0.68;entryDx=0;entryDy=0;entryPerimeter=0;" edge="1" parent="1">
          <mxGeometry relative="1" as="geometry">
            <mxPoint x="455" y="614" as="sourcePoint" />
            <mxPoint x="712.5" y="614" as="targetPoint" />
          </mxGeometry>
        </mxCell>
        <mxCell id="Qois3ID9x9ZdXMwzkJd7-28" style="edgeStyle=orthogonalEdgeStyle;rounded=0;orthogonalLoop=1;jettySize=auto;html=1;entryX=0.75;entryY=0.53;entryDx=0;entryDy=0;entryPerimeter=0;dashed=1;" edge="1" parent="1">
          <mxGeometry relative="1" as="geometry">
            <mxPoint x="218" y="580" as="sourcePoint" />
            <mxPoint x="453" y="580" as="targetPoint" />
          </mxGeometry>
        </mxCell>
        <mxCell id="Qois3ID9x9ZdXMwzkJd7-29" style="edgeStyle=orthogonalEdgeStyle;rounded=0;orthogonalLoop=1;jettySize=auto;html=1;entryX=0.62;entryY=1.1;entryDx=0;entryDy=0;entryPerimeter=0;" edge="1" parent="1">
          <mxGeometry relative="1" as="geometry">
            <mxPoint x="218" y="524" as="sourcePoint" />
            <mxPoint x="711" y="524" as="targetPoint" />
          </mxGeometry>
        </mxCell>
        <mxCell id="Qois3ID9x9ZdXMwzkJd7-31" value="" style="edgeStyle=orthogonalEdgeStyle;rounded=0;orthogonalLoop=1;jettySize=auto;html=1;endArrow=none;endFill=0;opacity=30;" edge="1" parent="1">
          <mxGeometry relative="1" as="geometry">
            <mxPoint x="710" y="201" as="sourcePoint" />
            <mxPoint x="710" y="242" as="targetPoint" />
          </mxGeometry>
        </mxCell>
        <mxCell id="Qois3ID9x9ZdXMwzkJd7-33" value="" style="edgeStyle=orthogonalEdgeStyle;rounded=0;orthogonalLoop=1;jettySize=auto;html=1;endArrow=none;endFill=0;opacity=30;" edge="1" parent="1">
          <mxGeometry relative="1" as="geometry">
            <mxPoint x="454" y="200" as="sourcePoint" />
            <mxPoint x="454" y="242" as="targetPoint" />
          </mxGeometry>
        </mxCell>
        <mxCell id="Qois3ID9x9ZdXMwzkJd7-34" style="edgeStyle=orthogonalEdgeStyle;rounded=0;orthogonalLoop=1;jettySize=auto;html=1;entryX=0.26;entryY=0.64;entryDx=0;entryDy=0;entryPerimeter=0;" edge="1" parent="1">
          <mxGeometry relative="1" as="geometry">
            <mxPoint x="710" y="242" as="sourcePoint" />
            <mxPoint x="454" y="242" as="targetPoint" />
          </mxGeometry>
        </mxCell>
        <mxCell id="Qois3ID9x9ZdXMwzkJd7-39" style="edgeStyle=orthogonalEdgeStyle;rounded=0;orthogonalLoop=1;jettySize=auto;html=1;" edge="1" parent="1">
          <mxGeometry relative="1" as="geometry">
            <mxPoint x="710" y="405" as="sourcePoint" />
            <mxPoint x="216" y="405" as="targetPoint" />
          </mxGeometry>
        </mxCell>
      </root>
    </mxGraphModel>
  </diagram>
</mxfile>
